<svg xmlns="http://www.w3.org/2000/svg" xmlns:xlink="http://www.w3.org/1999/xlink" width="500" zoomAndPan="magnify" viewBox="0 0 375 374.999991" height="500" preserveAspectRatio="xMidYMid meet" version="1.2"><defs><clipPath id="2aa2deba68"><path d="M 83.777344 136.699219 L 285.847656 136.699219 L 285.847656 172.917969 L 83.777344 172.917969 Z M 83.777344 136.699219 "/></clipPath><clipPath id="fabdc0ad27"><path d="M 0.777344 0.699219 L 202.847656 0.699219 L 202.847656 36.917969 L 0.777344 36.917969 Z M 0.777344 0.699219 "/></clipPath><clipPath id="6cc44f5810"><rect x="0" width="203" y="0" height="37"/></clipPath><clipPath id="39071ac5d9"><path d="M 83.777344 230.34375 L 130.570312 230.34375 L 130.570312 247.449219 L 83.777344 247.449219 Z M 83.777344 230.34375 "/></clipPath><clipPath id="74a1f48b31"><path d="M 0.777344 0.34375 L 47.570312 0.34375 L 47.570312 17.449219 L 0.777344 17.449219 Z M 0.777344 0.34375 "/></clipPath><clipPath id="e814465e4b"><rect x="0" width="48" y="0" height="18"/></clipPath><clipPath id="a8722ae89f"><path d="M 254.164062 178.929688 L 285.664062 178.929688 L 285.664062 220.929688 L 254.164062 220.929688 Z M 254.164062 178.929688 "/></clipPath><clipPath id="2282ba011c"><rect x="0" width="73" y="0" height="40"/></clipPath></defs><g id="45673bb555"><g clip-rule="nonzero" clip-path="url(#2aa2deba68)"><g transform="matrix(1,0,0,1,83,136)"><g clip-path="url(#6cc44f5810)"><g clip-rule="nonzero" clip-path="url(#fabdc0ad27)"><path style=" stroke:none;fill-rule:nonzero;fill:#40a673;fill-opacity:1;" d="M 0.777344 0.699219 L 202.800781 0.699219 L 202.800781 36.917969 L 0.777344 36.917969 Z M 0.777344 0.699219 "/></g></g></g></g><g clip-rule="nonzero" clip-path="url(#39071ac5d9)"><g transform="matrix(1,0,0,1,83,230)"><g clip-path="url(#e814465e4b)"><g clip-rule="nonzero" clip-path="url(#74a1f48b31)"><path style=" stroke:none;fill-rule:nonzero;fill:#40a673;fill-opacity:1;" d="M 0.777344 0.34375 L 47.550781 0.34375 L 47.550781 17.449219 L 0.777344 17.449219 Z M 0.777344 0.34375 "/></g></g></g></g><g clip-rule="nonzero" clip-path="url(#a8722ae89f)"><path style=" stroke:none;fill-rule:nonzero;fill:#fff0aa;fill-opacity:1;" d="M 270.003906 178.929688 C 261.269531 178.929688 254.164062 186.03125 254.164062 194.765625 C 254.164062 205.742188 268.460938 220.167969 269.070312 220.777344 C 269.328125 221.03125 269.664062 221.164062 270.003906 221.164062 C 270.339844 221.164062 270.679688 221.03125 270.9375 220.777344 C 271.542969 220.167969 285.839844 205.742188 285.839844 194.765625 C 285.839844 186.03125 278.738281 178.929688 270.003906 178.929688 Z M 270.003906 202.683594 C 265.636719 202.683594 262.085938 199.132812 262.085938 194.765625 C 262.085938 190.398438 265.636719 186.847656 270.003906 186.847656 C 274.367188 186.847656 277.921875 190.398438 277.921875 194.765625 C 277.921875 199.132812 274.367188 202.683594 270.003906 202.683594 Z M 270.003906 202.683594 "/></g><g transform="matrix(1,0,0,1,90,136)"><g clip-path="url(#2282ba011c)"><g style="fill:#fff0aa;fill-opacity:1;"><g transform="translate(0.759081, 31.26358)"><path style="stroke:none" d="M 22.671875 -24.375 C 22.671875 -23.332031 22.691406 -22.285156 22.734375 -21.234375 C 22.785156 -20.191406 22.785156 -19.148438 22.734375 -18.109375 C 22.710938 -17.617188 22.6875 -17.117188 22.65625 -16.609375 C 22.632812 -16.109375 22.640625 -15.597656 22.671875 -15.078125 C 22.671875 -14.847656 22.566406 -14.71875 22.359375 -14.6875 C 21.941406 -14.632812 21.453125 -14.613281 20.890625 -14.625 C 20.335938 -14.644531 19.8125 -14.644531 19.3125 -14.625 C 18.820312 -14.613281 18.5 -14.5625 18.34375 -14.46875 C 18.269531 -14.414062 18.179688 -14.328125 18.078125 -14.203125 C 17.972656 -14.085938 17.894531 -13.914062 17.84375 -13.6875 C 17.820312 -13.476562 17.796875 -13.023438 17.765625 -12.328125 C 17.742188 -11.628906 17.734375 -10.789062 17.734375 -9.8125 C 17.734375 -8.84375 17.734375 -7.832031 17.734375 -6.78125 C 17.734375 -5.726562 17.734375 -4.734375 17.734375 -3.796875 C 17.734375 -2.867188 17.734375 -2.09375 17.734375 -1.46875 C 17.734375 -0.851562 17.742188 -0.503906 17.765625 -0.421875 C 17.765625 -0.140625 17.648438 0 17.421875 0 L 6.5625 0 C 6.363281 0 6.25 -0.128906 6.21875 -0.390625 C 6.21875 -0.722656 6.222656 -1.289062 6.234375 -2.09375 C 6.253906 -2.894531 6.273438 -3.800781 6.296875 -4.8125 C 6.328125 -5.832031 6.351562 -6.835938 6.375 -7.828125 C 6.40625 -8.828125 6.425781 -9.6875 6.4375 -10.40625 C 6.445312 -11.132812 6.441406 -11.601562 6.421875 -11.8125 C 6.367188 -12.207031 6.347656 -12.597656 6.359375 -12.984375 C 6.367188 -13.367188 6.234375 -13.707031 5.953125 -14 C 5.710938 -14.207031 5.457031 -14.351562 5.1875 -14.4375 C 4.914062 -14.53125 4.640625 -14.585938 4.359375 -14.609375 C 4.117188 -14.640625 3.765625 -14.65625 3.296875 -14.65625 C 2.835938 -14.65625 2.421875 -14.65625 2.046875 -14.65625 C 1.671875 -14.65625 1.484375 -14.65625 1.484375 -14.65625 C 1.242188 -14.65625 1.125 -14.785156 1.125 -15.046875 C 1.125 -15.046875 1.125 -15.21875 1.125 -15.5625 C 1.125 -15.914062 1.117188 -16.304688 1.109375 -16.734375 C 1.097656 -17.160156 1.078125 -17.492188 1.046875 -17.734375 C 1.023438 -18.085938 1 -18.609375 0.96875 -19.296875 C 0.945312 -19.984375 0.9375 -20.695312 0.9375 -21.4375 C 0.9375 -22.175781 0.9375 -22.8125 0.9375 -23.34375 C 0.9375 -23.875 0.9375 -24.164062 0.9375 -24.21875 C 0.9375 -24.375 1.050781 -24.453125 1.28125 -24.453125 L 22.59375 -24.453125 C 22.59375 -24.453125 22.601562 -24.441406 22.625 -24.421875 C 22.65625 -24.410156 22.671875 -24.394531 22.671875 -24.375 Z M 22.671875 -24.375 "/></g></g><g style="fill:#fff0aa;fill-opacity:1;"><g transform="translate(24.586922, 31.26358)"><path style="stroke:none" d="M 18.546875 -0.578125 C 17.816406 -0.316406 17.082031 -0.15625 16.34375 -0.09375 C 15.601562 -0.03125 15.078125 0 14.765625 0 L 8.234375 0 C 7.203125 0 6.132812 -0.234375 5.03125 -0.703125 C 3.925781 -1.171875 3.078125 -1.816406 2.484375 -2.640625 C 2.066406 -3.234375 1.753906 -3.90625 1.546875 -4.65625 C 1.347656 -5.414062 1.210938 -6.148438 1.140625 -6.859375 C 1.078125 -7.578125 1.046875 -8.164062 1.046875 -8.625 L 1.046875 -24.1875 C 1.046875 -24.363281 1.113281 -24.453125 1.25 -24.453125 L 10.265625 -24.453125 C 10.390625 -24.453125 10.453125 -24.363281 10.453125 -24.1875 C 10.453125 -22.757812 10.453125 -21.332031 10.453125 -19.90625 C 10.453125 -19.539062 10.453125 -19 10.453125 -18.28125 C 10.453125 -17.570312 10.445312 -16.816406 10.4375 -16.015625 C 10.425781 -15.210938 10.425781 -14.476562 10.4375 -13.8125 C 10.445312 -13.15625 10.46875 -12.695312 10.5 -12.4375 C 10.519531 -11.894531 10.566406 -11.359375 10.640625 -10.828125 C 10.722656 -10.296875 10.882812 -9.925781 11.125 -9.71875 C 11.375 -9.488281 11.628906 -9.410156 11.890625 -9.484375 C 12.148438 -9.566406 12.332031 -9.65625 12.4375 -9.75 C 12.726562 -10.144531 12.875 -10.613281 12.875 -11.15625 C 12.875 -11.695312 12.882812 -12.226562 12.90625 -12.75 C 12.90625 -13.007812 12.910156 -13.492188 12.921875 -14.203125 C 12.941406 -14.921875 12.953125 -15.710938 12.953125 -16.578125 C 12.953125 -17.441406 12.953125 -18.265625 12.953125 -19.046875 C 12.953125 -19.828125 12.960938 -20.425781 12.984375 -20.84375 C 12.984375 -21.40625 12.984375 -21.960938 12.984375 -22.515625 C 12.984375 -23.078125 12.972656 -23.632812 12.953125 -24.1875 C 12.953125 -24.363281 13.015625 -24.453125 13.140625 -24.453125 L 22.671875 -24.453125 C 22.796875 -24.453125 22.859375 -24.363281 22.859375 -24.1875 L 22.859375 -9.40625 C 22.859375 -8.34375 22.800781 -7.222656 22.6875 -6.046875 C 22.570312 -4.867188 22.1875 -3.863281 21.53125 -3.03125 C 21.09375 -2.488281 20.628906 -2.003906 20.140625 -1.578125 C 19.648438 -1.148438 19.117188 -0.816406 18.546875 -0.578125 Z M 18.546875 -0.578125 "/></g></g><g style="fill:#fff0aa;fill-opacity:1;"><g transform="translate(48.60912, 31.26358)"><path style="stroke:none" d="M 20.71875 -7.421875 C 20.945312 -6.953125 21.175781 -6.363281 21.40625 -5.65625 C 21.644531 -4.945312 21.867188 -4.222656 22.078125 -3.484375 C 22.285156 -2.742188 22.457031 -2.09375 22.59375 -1.53125 C 22.738281 -0.976562 22.828125 -0.609375 22.859375 -0.421875 C 22.910156 -0.140625 22.832031 0 22.625 0 L 13.953125 0 C 13.847656 0 13.785156 -0.078125 13.765625 -0.234375 C 13.710938 -0.410156 13.59375 -0.765625 13.40625 -1.296875 C 13.226562 -1.828125 13.015625 -2.410156 12.765625 -3.046875 C 12.523438 -3.679688 12.289062 -4.25 12.0625 -4.75 C 11.84375 -5.257812 11.671875 -5.59375 11.546875 -5.75 C 11.410156 -5.882812 11.242188 -5.914062 11.046875 -5.84375 C 10.859375 -5.78125 10.753906 -5.644531 10.734375 -5.4375 C 10.679688 -4.632812 10.644531 -3.796875 10.625 -2.921875 C 10.613281 -2.054688 10.625 -1.210938 10.65625 -0.390625 C 10.675781 -0.128906 10.597656 0 10.421875 0 L 1.328125 0 C 1.171875 0 1.09375 -0.113281 1.09375 -0.34375 L 1.09375 -3.65625 C 1.09375 -3.78125 1.097656 -4.113281 1.109375 -4.65625 C 1.117188 -5.207031 1.125 -5.859375 1.125 -6.609375 C 1.125 -7.359375 1.125 -8.109375 1.125 -8.859375 C 1.125 -9.609375 1.117188 -10.253906 1.109375 -10.796875 C 1.097656 -11.347656 1.09375 -11.6875 1.09375 -11.8125 L 1.09375 -16.640625 C 1.113281 -17.878906 1.132812 -19.140625 1.15625 -20.421875 C 1.1875 -21.710938 1.191406 -22.992188 1.171875 -24.265625 C 1.171875 -24.390625 1.207031 -24.453125 1.28125 -24.453125 L 17.765625 -24.453125 C 18.203125 -24.453125 18.644531 -24.34375 19.09375 -24.125 C 19.550781 -23.90625 19.988281 -23.625 20.40625 -23.28125 C 20.84375 -22.894531 21.210938 -22.453125 21.515625 -21.953125 C 21.816406 -21.460938 22.03125 -21.09375 22.15625 -20.84375 C 22.5 -20.0625 22.707031 -19.269531 22.78125 -18.46875 C 22.851562 -17.664062 22.890625 -16.742188 22.890625 -15.703125 C 22.890625 -15.003906 22.828125 -14.207031 22.703125 -13.3125 C 22.578125 -12.414062 22.410156 -11.738281 22.203125 -11.28125 C 22.066406 -10.96875 21.878906 -10.613281 21.640625 -10.21875 C 21.410156 -9.832031 21.207031 -9.492188 21.03125 -9.203125 C 20.851562 -8.921875 20.75 -8.769531 20.71875 -8.75 C 20.71875 -8.75 20.707031 -8.75 20.6875 -8.75 C 20.5 -8.5625 20.425781 -8.359375 20.46875 -8.140625 C 20.507812 -7.921875 20.59375 -7.679688 20.71875 -7.421875 Z M 12.40625 -14.109375 C 12.425781 -14.648438 12.429688 -15.144531 12.421875 -15.59375 C 12.410156 -16.050781 12.378906 -16.488281 12.328125 -16.90625 C 12.242188 -17.601562 12.09375 -18.050781 11.875 -18.25 C 11.65625 -18.445312 11.429688 -18.546875 11.203125 -18.546875 C 11.046875 -18.546875 10.898438 -18.5 10.765625 -18.40625 C 10.640625 -18.3125 10.578125 -18.210938 10.578125 -18.109375 C 10.578125 -17.953125 10.578125 -17.757812 10.578125 -17.53125 C 10.578125 -17.300781 10.578125 -17.066406 10.578125 -16.828125 C 10.578125 -16.410156 10.566406 -15.859375 10.546875 -15.171875 C 10.535156 -14.492188 10.546875 -13.929688 10.578125 -13.484375 C 10.578125 -13.304688 10.601562 -13.097656 10.65625 -12.859375 C 10.707031 -12.628906 10.890625 -12.503906 11.203125 -12.484375 C 11.453125 -12.484375 11.703125 -12.601562 11.953125 -12.84375 C 12.203125 -13.09375 12.351562 -13.515625 12.40625 -14.109375 Z M 12.40625 -14.109375 "/></g></g></g></g><g style="fill:#40a673;fill-opacity:1;"><g transform="translate(83.958369, 222.035743)"><path style="stroke:none" d="M 41.984375 -19.90625 C 41.984375 -19.15625 41.992188 -18.019531 42.015625 -16.5 C 42.035156 -14.988281 42.066406 -13.3125 42.109375 -11.46875 C 42.160156 -9.625 42.21875 -7.851562 42.28125 -6.15625 C 42.34375 -4.46875 42.382812 -3.070312 42.40625 -1.96875 C 42.425781 -0.875 42.4375 -0.328125 42.4375 -0.328125 C 42.4375 -0.109375 42.375 0 42.25 0 L 28.53125 0 C 28.363281 0 28.28125 -0.109375 28.28125 -0.328125 C 28.320312 -2.171875 28.304688 -3.984375 28.234375 -5.765625 C 28.171875 -7.546875 28.140625 -9.445312 28.140625 -11.46875 C 28.140625 -11.90625 27.953125 -12.203125 27.578125 -12.359375 C 27.203125 -12.515625 26.972656 -12.367188 26.890625 -11.921875 C 26.492188 -9.679688 26.160156 -7.660156 25.890625 -5.859375 C 25.628906 -4.054688 25.328125 -2.191406 24.984375 -0.265625 C 24.929688 -0.0859375 24.84375 0 24.71875 0 L 18.515625 0 C 18.390625 0 18.328125 -0.0859375 18.328125 -0.265625 C 17.929688 -2.066406 17.664062 -3.929688 17.53125 -5.859375 C 17.394531 -7.796875 17.128906 -9.6875 16.734375 -11.53125 C 16.609375 -12.144531 16.359375 -12.460938 15.984375 -12.484375 C 15.609375 -12.503906 15.421875 -12.207031 15.421875 -11.59375 C 15.460938 -9.96875 15.40625 -8.097656 15.25 -5.984375 C 15.101562 -3.878906 15.03125 -1.992188 15.03125 -0.328125 C 15.03125 -0.109375 14.960938 0 14.828125 0 L 1.984375 0 C 1.804688 0 1.71875 -0.109375 1.71875 -0.328125 L 1.71875 -0.71875 C 1.800781 -2.914062 1.863281 -5.421875 1.90625 -8.234375 C 1.957031 -11.046875 1.992188 -13.898438 2.015625 -16.796875 C 2.035156 -19.703125 2.046875 -22.425781 2.046875 -24.96875 C 2.046875 -27.519531 2.035156 -29.660156 2.015625 -31.390625 C 1.992188 -33.128906 1.984375 -34.195312 1.984375 -34.59375 C 1.984375 -35.65625 1.96875 -36.710938 1.9375 -37.765625 C 1.914062 -38.816406 1.90625 -39.894531 1.90625 -41 C 1.90625 -41.039062 1.90625 -41.082031 1.90625 -41.125 C 1.90625 -41.34375 1.992188 -41.453125 2.171875 -41.453125 L 20.171875 -41.453125 C 20.253906 -41.453125 20.316406 -41.363281 20.359375 -41.1875 C 20.578125 -39.382812 20.726562 -37.5625 20.8125 -35.71875 C 20.90625 -33.875 21.128906 -32.140625 21.484375 -30.515625 C 21.523438 -30.253906 21.664062 -30.078125 21.90625 -29.984375 C 22.15625 -29.898438 22.367188 -29.878906 22.546875 -29.921875 C 22.765625 -30.003906 22.925781 -30.078125 23.03125 -30.140625 C 23.144531 -30.210938 23.222656 -30.554688 23.265625 -31.171875 C 23.265625 -31.523438 23.304688 -32.316406 23.390625 -33.546875 C 23.484375 -34.773438 23.601562 -36.101562 23.75 -37.53125 C 23.90625 -38.957031 24.050781 -40.175781 24.1875 -41.1875 C 24.226562 -41.363281 24.316406 -41.453125 24.453125 -41.453125 L 42.109375 -41.453125 C 42.285156 -41.453125 42.375 -41.34375 42.375 -41.125 C 42.375 -37.613281 42.304688 -34.085938 42.171875 -30.546875 C 42.046875 -27.003906 41.984375 -23.457031 41.984375 -19.90625 Z M 41.984375 -19.90625 "/></g></g><g style="fill:#40a673;fill-opacity:1;"><g transform="translate(128.239506, 222.035743)"><path style="stroke:none" d="M 39.8125 0 L 18.328125 0 C 18.148438 0 18.0625 -0.109375 18.0625 -0.328125 C 18.101562 -1.160156 18.1875 -2.289062 18.3125 -3.71875 C 18.445312 -5.144531 18.59375 -6.582031 18.75 -8.03125 C 18.90625 -9.488281 19.023438 -10.613281 19.109375 -11.40625 C 19.148438 -11.488281 19.238281 -11.550781 19.375 -11.59375 C 19.507812 -11.644531 19.617188 -11.671875 19.703125 -11.671875 C 19.796875 -11.617188 20.0625 -11.59375 20.5 -11.59375 C 20.9375 -11.59375 21.382812 -11.59375 21.84375 -11.59375 C 22.3125 -11.59375 22.609375 -11.59375 22.734375 -11.59375 C 22.734375 -11.59375 22.921875 -11.679688 23.296875 -11.859375 C 23.671875 -12.035156 23.859375 -12.34375 23.859375 -12.78125 C 23.816406 -13 23.71875 -13.644531 23.5625 -14.71875 C 23.40625 -15.800781 23.226562 -17.035156 23.03125 -18.421875 C 22.832031 -19.804688 22.65625 -21.132812 22.5 -22.40625 C 22.351562 -23.675781 22.253906 -24.617188 22.203125 -25.234375 C 22.160156 -26.203125 22.03125 -27.015625 21.8125 -27.671875 C 21.59375 -28.335938 21.265625 -28.671875 20.828125 -28.671875 C 20.210938 -28.710938 19.78125 -28.414062 19.53125 -27.78125 C 19.289062 -27.144531 19.148438 -26.648438 19.109375 -26.296875 C 18.984375 -25.328125 18.765625 -23.960938 18.453125 -22.203125 C 18.148438 -20.453125 17.800781 -18.519531 17.40625 -16.40625 C 17.007812 -14.300781 16.632812 -12.191406 16.28125 -10.078125 C 15.925781 -7.972656 15.628906 -6.050781 15.390625 -4.3125 C 15.148438 -2.582031 15.003906 -1.253906 14.953125 -0.328125 C 14.953125 -0.109375 14.890625 0 14.765625 0 L 1.453125 0 C 1.273438 0 1.207031 -0.128906 1.25 -0.390625 C 1.289062 -0.566406 1.320312 -0.753906 1.34375 -0.953125 C 1.375 -1.148438 1.410156 -1.335938 1.453125 -1.515625 C 1.535156 -1.910156 1.707031 -2.753906 1.96875 -4.046875 C 2.238281 -5.347656 2.535156 -6.8125 2.859375 -8.4375 C 3.191406 -10.0625 3.507812 -11.628906 3.8125 -13.140625 C 4.125 -14.660156 4.390625 -15.835938 4.609375 -16.671875 C 4.703125 -17.242188 4.867188 -18.210938 5.109375 -19.578125 C 5.347656 -20.941406 5.609375 -22.507812 5.890625 -24.28125 C 6.179688 -26.0625 6.476562 -27.882812 6.78125 -29.75 C 7.09375 -31.625 7.367188 -33.394531 7.609375 -35.0625 C 7.847656 -36.726562 8.054688 -38.109375 8.234375 -39.203125 C 8.410156 -40.304688 8.5 -40.96875 8.5 -41.1875 C 8.539062 -41.363281 8.628906 -41.453125 8.765625 -41.453125 L 32.75 -41.453125 C 32.84375 -41.453125 32.910156 -41.363281 32.953125 -41.1875 C 33.035156 -40.75 33.195312 -39.835938 33.4375 -38.453125 C 33.6875 -37.066406 33.953125 -35.515625 34.234375 -33.796875 C 34.523438 -32.085938 34.800781 -30.453125 35.0625 -28.890625 C 35.320312 -27.335938 35.539062 -26.117188 35.71875 -25.234375 C 36.03125 -23.484375 36.316406 -21.726562 36.578125 -19.96875 C 36.835938 -18.207031 37.101562 -16.453125 37.375 -14.703125 C 37.457031 -14.347656 37.578125 -13.675781 37.734375 -12.6875 C 37.890625 -11.695312 38.085938 -10.578125 38.328125 -9.328125 C 38.566406 -8.078125 38.796875 -6.8125 39.015625 -5.53125 C 39.234375 -4.257812 39.441406 -3.160156 39.640625 -2.234375 C 39.835938 -1.316406 39.957031 -0.703125 40 -0.390625 C 40.09375 -0.128906 40.03125 0 39.8125 0 Z M 39.8125 0 "/></g></g><g style="fill:#40a673;fill-opacity:1;"><g transform="translate(169.687177, 222.035743)"><path style="stroke:none" d="M 38.953125 -29.328125 C 38.992188 -28.847656 39.003906 -28.035156 38.984375 -26.890625 C 38.960938 -25.742188 38.914062 -24.597656 38.84375 -23.453125 C 38.78125 -22.316406 38.6875 -21.507812 38.5625 -21.03125 C 38.332031 -19.882812 37.960938 -18.671875 37.453125 -17.390625 C 36.953125 -16.117188 36.132812 -14.890625 35 -13.703125 C 33.894531 -12.566406 32.925781 -11.742188 32.09375 -11.234375 C 31.257812 -10.734375 30.554688 -10.328125 29.984375 -10.015625 C 29.285156 -9.617188 28.285156 -9.273438 26.984375 -8.984375 C 25.691406 -8.703125 24.441406 -8.484375 23.234375 -8.328125 C 22.023438 -8.179688 21.175781 -8.109375 20.6875 -8.109375 C 19.675781 -8.109375 19.03125 -7.921875 18.75 -7.546875 C 18.46875 -7.171875 18.28125 -6.523438 18.1875 -5.609375 C 18.101562 -5.035156 18.0625 -4.273438 18.0625 -3.328125 C 18.0625 -2.378906 18.0625 -1.535156 18.0625 -0.796875 C 18.0625 -0.265625 17.863281 0 17.46875 0 L 2.375 0 C 1.9375 0 1.71875 -0.265625 1.71875 -0.796875 C 1.71875 -0.796875 1.726562 -1.320312 1.75 -2.375 C 1.769531 -3.425781 1.800781 -4.71875 1.84375 -6.25 C 1.882812 -7.789062 1.914062 -9.304688 1.9375 -10.796875 C 1.96875 -12.296875 1.984375 -13.53125 1.984375 -14.5 C 2.023438 -18.1875 2.007812 -21.882812 1.9375 -25.59375 C 1.875 -29.3125 1.84375 -33.039062 1.84375 -36.78125 C 1.800781 -38.226562 1.78125 -39.675781 1.78125 -41.125 C 1.78125 -41.34375 1.910156 -41.453125 2.171875 -41.453125 L 27.609375 -41.453125 C 28.398438 -41.453125 29.351562 -41.304688 30.46875 -41.015625 C 31.59375 -40.734375 32.90625 -40.023438 34.40625 -38.890625 C 35.414062 -38.097656 36.226562 -37.128906 36.84375 -35.984375 C 37.457031 -34.835938 37.925781 -33.671875 38.25 -32.484375 C 38.582031 -31.304688 38.816406 -30.253906 38.953125 -29.328125 Z M 22.34375 -28.859375 C 22.34375 -29.171875 22.316406 -29.566406 22.265625 -30.046875 C 22.222656 -30.535156 22.070312 -30.96875 21.8125 -31.34375 C 21.550781 -31.71875 21.113281 -31.90625 20.5 -31.90625 C 19.882812 -31.90625 19.429688 -31.707031 19.140625 -31.3125 C 18.859375 -30.914062 18.679688 -30.484375 18.609375 -30.015625 C 18.546875 -29.554688 18.515625 -29.195312 18.515625 -28.9375 C 18.472656 -28.539062 18.441406 -27.890625 18.421875 -26.984375 C 18.398438 -26.085938 18.378906 -25.1875 18.359375 -24.28125 C 18.335938 -23.382812 18.347656 -22.757812 18.390625 -22.40625 C 18.390625 -22.101562 18.421875 -21.695312 18.484375 -21.1875 C 18.546875 -20.6875 18.707031 -20.222656 18.96875 -19.796875 C 19.238281 -19.378906 19.703125 -19.171875 20.359375 -19.171875 C 21.285156 -19.171875 21.835938 -19.5 22.015625 -20.15625 C 22.191406 -20.820312 22.300781 -21.351562 22.34375 -21.75 C 22.34375 -22.1875 22.351562 -22.910156 22.375 -23.921875 C 22.394531 -24.929688 22.40625 -25.921875 22.40625 -26.890625 C 22.40625 -27.859375 22.382812 -28.515625 22.34375 -28.859375 Z M 22.34375 -28.859375 "/></g></g><g style="fill:#40a673;fill-opacity:1;"><g transform="translate(210.410002, 222.035743)"><path style="stroke:none" d="M 38.21875 -41.453125 C 38.269531 -41.410156 38.316406 -41.34375 38.359375 -41.25 C 38.441406 -40.375 38.472656 -39.640625 38.453125 -39.046875 C 38.429688 -38.453125 38.398438 -37.789062 38.359375 -37.0625 C 38.316406 -36.34375 38.296875 -35.257812 38.296875 -33.8125 C 38.296875 -33.28125 38.335938 -32.507812 38.421875 -31.5 C 38.515625 -30.488281 38.582031 -29.722656 38.625 -29.203125 C 38.625 -28.804688 38.425781 -28.609375 38.03125 -28.609375 C 36.53125 -28.648438 34.8125 -28.722656 32.875 -28.828125 C 30.945312 -28.941406 29.132812 -29.039062 27.4375 -29.125 C 25.75 -29.21875 24.535156 -29.265625 23.796875 -29.265625 C 22.171875 -29.222656 20.753906 -29.085938 19.546875 -28.859375 C 18.335938 -28.640625 17.734375 -28.132812 17.734375 -27.34375 C 17.734375 -26.507812 17.960938 -26.003906 18.421875 -25.828125 C 18.878906 -25.660156 19.285156 -25.550781 19.640625 -25.5 C 20.828125 -25.28125 21.816406 -25.203125 22.609375 -25.265625 C 23.398438 -25.335938 24.5 -25.328125 25.90625 -25.234375 C 27.351562 -25.148438 28.78125 -24.953125 30.1875 -24.640625 C 31.59375 -24.335938 32.84375 -23.722656 33.9375 -22.796875 C 34.550781 -22.273438 35.222656 -21.609375 35.953125 -20.796875 C 36.679688 -19.984375 37.296875 -18.804688 37.796875 -17.265625 C 38.304688 -15.722656 38.5625 -13.550781 38.5625 -10.75 C 38.5625 -10.125 38.414062 -9.21875 38.125 -8.03125 C 37.84375 -6.851562 37.285156 -5.625 36.453125 -4.34375 C 36.054688 -3.78125 35.414062 -3.15625 34.53125 -2.46875 C 33.65625 -1.789062 32.664062 -1.273438 31.5625 -0.921875 C 30.113281 -0.484375 28.664062 -0.238281 27.21875 -0.1875 C 25.769531 -0.144531 24.71875 -0.125 24.0625 -0.125 C 23.882812 -0.125 23.234375 -0.113281 22.109375 -0.09375 C 20.992188 -0.0703125 19.609375 -0.0625 17.953125 -0.0625 C 16.304688 -0.0625 14.582031 -0.0507812 12.78125 -0.03125 C 10.976562 -0.0078125 9.273438 0 7.671875 0 C 6.066406 0 4.769531 0 3.78125 0 C 2.800781 0 2.3125 0 2.3125 0 C 1.914062 0 1.71875 -0.175781 1.71875 -0.53125 C 1.71875 -1.050781 1.726562 -1.578125 1.75 -2.109375 C 1.769531 -2.640625 1.800781 -3.164062 1.84375 -3.6875 C 1.9375 -5.007812 1.96875 -6.335938 1.9375 -7.671875 C 1.914062 -9.015625 1.90625 -10.347656 1.90625 -11.671875 C 1.90625 -12.066406 2.101562 -12.238281 2.5 -12.1875 C 2.988281 -12.144531 3.570312 -12.125 4.25 -12.125 C 4.925781 -12.125 5.550781 -12.113281 6.125 -12.09375 C 6.695312 -12.070312 7.070312 -12.0625 7.25 -12.0625 C 7.90625 -12.019531 8.804688 -11.984375 9.953125 -11.953125 C 11.097656 -11.929688 12.304688 -11.941406 13.578125 -11.984375 C 14.847656 -12.035156 16.039062 -12.101562 17.15625 -12.1875 C 18.28125 -12.28125 19.148438 -12.414062 19.765625 -12.59375 C 20.691406 -12.8125 21.175781 -13.378906 21.21875 -14.296875 C 21.257812 -14.828125 21.003906 -15.191406 20.453125 -15.390625 C 19.910156 -15.585938 19.242188 -15.6875 18.453125 -15.6875 C 17.660156 -15.6875 16.867188 -15.648438 16.078125 -15.578125 C 15.285156 -15.515625 14.671875 -15.484375 14.234375 -15.484375 C 12.828125 -15.398438 11.453125 -15.457031 10.109375 -15.65625 C 8.773438 -15.851562 7.515625 -16.347656 6.328125 -17.140625 C 5.453125 -17.710938 4.671875 -18.445312 3.984375 -19.34375 C 3.304688 -20.238281 2.789062 -21.171875 2.4375 -22.140625 C 1.6875 -24.117188 1.410156 -26.179688 1.609375 -28.328125 C 1.804688 -30.484375 2.347656 -32.53125 3.234375 -34.46875 C 3.753906 -35.613281 4.410156 -36.644531 5.203125 -37.5625 C 5.992188 -38.488281 6.941406 -39.210938 8.046875 -39.734375 C 8.960938 -40.179688 9.914062 -40.578125 10.90625 -40.921875 C 11.894531 -41.273438 12.894531 -41.453125 13.90625 -41.453125 Z M 38.21875 -41.453125 "/></g></g><g style="fill:#40a673;fill-opacity:1;"><g transform="translate(250.809921, 222.035743)"><path style="stroke:none" d=""/></g></g><g style="fill:#40a673;fill-opacity:1;"><g transform="translate(262.670943, 222.035743)"><path style="stroke:none" d=""/></g></g><g style="fill:#40a673;fill-opacity:1;"><g transform="translate(274.531965, 222.035743)"><path style="stroke:none" d=""/></g></g><g style="fill:#fff0aa;fill-opacity:1;"><g transform="translate(137.08025, 242.072768)"><path style="stroke:none" d="M 1.03125 -8.953125 C 1.644531 -9.035156 2.28125 -9.078125 2.9375 -9.078125 C 4.144531 -9.078125 5.066406 -8.789062 5.703125 -8.21875 C 6.335938 -7.65625 6.65625 -6.804688 6.65625 -5.671875 C 6.65625 -4.648438 6.304688 -3.847656 5.609375 -3.265625 C 4.960938 -2.710938 4.128906 -2.4375 3.109375 -2.4375 C 2.992188 -2.4375 2.867188 -2.441406 2.734375 -2.453125 L 2.734375 0 L 1.03125 0 Z M 3.140625 -7.46875 C 3.003906 -7.46875 2.867188 -7.460938 2.734375 -7.453125 L 2.734375 -3.921875 C 2.878906 -3.910156 3.050781 -3.90625 3.25 -3.90625 C 3.457031 -3.90625 3.671875 -3.945312 3.890625 -4.03125 C 4.117188 -4.113281 4.3125 -4.234375 4.46875 -4.390625 C 4.78125 -4.722656 4.9375 -5.15625 4.9375 -5.6875 C 4.9375 -6.875 4.335938 -7.46875 3.140625 -7.46875 Z M 3.140625 -7.46875 "/></g></g><g style="fill:#fff0aa;fill-opacity:1;"><g transform="translate(143.954979, 242.072768)"><path style="stroke:none" d="M 1.796875 0.046875 C 1.410156 0.015625 0.960938 0 0.453125 0 L -0.078125 0 L 2.84375 -8.171875 C 2.96875 -8.535156 3.03125 -8.742188 3.03125 -8.796875 C 3.03125 -8.859375 3.03125 -8.898438 3.03125 -8.921875 C 3.320312 -8.910156 3.628906 -8.90625 3.953125 -8.90625 C 4.222656 -8.90625 4.546875 -8.910156 4.921875 -8.921875 L 4.9375 -8.90625 C 4.925781 -8.882812 4.921875 -8.859375 4.921875 -8.828125 C 4.921875 -8.742188 4.988281 -8.519531 5.125 -8.15625 L 8.09375 0.015625 C 8 0.015625 7.894531 0.015625 7.78125 0.015625 C 7.78125 0.015625 7.660156 0.0078125 7.421875 0 C 7.316406 0 7.21875 0 7.125 0 L 6.09375 0 L 5.453125 -1.921875 L 2.4375 -1.921875 Z M 4.9375 -3.53125 L 3.921875 -6.65625 L 2.9375 -3.53125 Z M 4.9375 -3.53125 "/></g></g><g style="fill:#fff0aa;fill-opacity:1;"><g transform="translate(151.975501, 242.072768)"><path style="stroke:none" d="M 4.03125 -3.46875 C 3.894531 -3.457031 3.75 -3.453125 3.59375 -3.453125 C 3.445312 -3.453125 3.222656 -3.460938 2.921875 -3.484375 L 2.921875 0 L 1.15625 0 L 1.15625 -8.953125 C 1.78125 -9.035156 2.546875 -9.078125 3.453125 -9.078125 C 4.691406 -9.078125 5.613281 -8.847656 6.21875 -8.390625 C 6.832031 -7.929688 7.140625 -7.222656 7.140625 -6.265625 C 7.140625 -5.523438 6.863281 -4.894531 6.3125 -4.375 C 6.125 -4.195312 5.914062 -4.046875 5.6875 -3.921875 L 7.046875 -1.046875 C 7.316406 -0.453125 7.519531 -0.0976562 7.65625 0.015625 L 7.625 0.046875 C 7.195312 -0.0234375 6.519531 -0.0234375 5.59375 0.046875 Z M 3.578125 -7.5 C 3.347656 -7.5 3.128906 -7.488281 2.921875 -7.46875 L 2.921875 -4.90625 C 3.140625 -4.875 3.394531 -4.859375 3.6875 -4.859375 C 3.988281 -4.859375 4.238281 -4.882812 4.4375 -4.9375 C 4.644531 -4.988281 4.820312 -5.066406 4.96875 -5.171875 C 5.28125 -5.410156 5.4375 -5.765625 5.4375 -6.234375 C 5.4375 -6.710938 5.269531 -7.046875 4.9375 -7.234375 C 4.632812 -7.410156 4.179688 -7.5 3.578125 -7.5 Z M 3.578125 -7.5 "/></g></g><g style="fill:#fff0aa;fill-opacity:1;"><g transform="translate(159.969222, 242.072768)"><path style="stroke:none" d="M 1.796875 0.046875 C 1.410156 0.015625 0.960938 0 0.453125 0 L -0.078125 0 L 2.84375 -8.171875 C 2.96875 -8.535156 3.03125 -8.742188 3.03125 -8.796875 C 3.03125 -8.859375 3.03125 -8.898438 3.03125 -8.921875 C 3.320312 -8.910156 3.628906 -8.90625 3.953125 -8.90625 C 4.222656 -8.90625 4.546875 -8.910156 4.921875 -8.921875 L 4.9375 -8.90625 C 4.925781 -8.882812 4.921875 -8.859375 4.921875 -8.828125 C 4.921875 -8.742188 4.988281 -8.519531 5.125 -8.15625 L 8.09375 0.015625 C 8 0.015625 7.894531 0.015625 7.78125 0.015625 C 7.78125 0.015625 7.660156 0.0078125 7.421875 0 C 7.316406 0 7.21875 0 7.125 0 L 6.09375 0 L 5.453125 -1.921875 L 2.4375 -1.921875 Z M 4.9375 -3.53125 L 3.921875 -6.65625 L 2.9375 -3.53125 Z M 4.9375 -3.53125 "/></g></g><g style="fill:#fff0aa;fill-opacity:1;"><g transform="translate(167.989744, 242.072768)"><path style="stroke:none" d="M 6.234375 -8.9375 C 6.503906 -8.914062 6.734375 -8.90625 6.921875 -8.90625 L 7.46875 -8.90625 C 7.65625 -8.90625 7.851562 -8.925781 8.0625 -8.96875 L 8.0625 -3.421875 C 8.0625 -2.328125 7.726562 -1.445312 7.0625 -0.78125 C 6.4375 -0.144531 5.648438 0.171875 4.703125 0.171875 C 3.660156 0.171875 2.816406 -0.0976562 2.171875 -0.640625 C 1.453125 -1.242188 1.09375 -2.117188 1.09375 -3.265625 L 1.09375 -8.9375 C 1.457031 -8.914062 1.800781 -8.90625 2.125 -8.90625 C 2.457031 -8.90625 2.734375 -8.925781 2.953125 -8.96875 L 2.953125 -3.1875 C 2.953125 -2.625 3.125 -2.1875 3.46875 -1.875 C 3.789062 -1.582031 4.191406 -1.4375 4.671875 -1.4375 C 5.390625 -1.4375 5.867188 -1.800781 6.109375 -2.53125 C 6.191406 -2.800781 6.234375 -3.128906 6.234375 -3.515625 Z M 6.234375 -8.9375 "/></g></g><g style="fill:#fff0aa;fill-opacity:1;"><g transform="translate(177.156049, 242.072768)"><path style="stroke:none" d="M 1.796875 0.046875 C 1.410156 0.015625 0.960938 0 0.453125 0 L -0.078125 0 L 2.84375 -8.171875 C 2.96875 -8.535156 3.03125 -8.742188 3.03125 -8.796875 C 3.03125 -8.859375 3.03125 -8.898438 3.03125 -8.921875 C 3.320312 -8.910156 3.628906 -8.90625 3.953125 -8.90625 C 4.222656 -8.90625 4.546875 -8.910156 4.921875 -8.921875 L 4.9375 -8.90625 C 4.925781 -8.882812 4.921875 -8.859375 4.921875 -8.828125 C 4.921875 -8.742188 4.988281 -8.519531 5.125 -8.15625 L 8.09375 0.015625 C 8 0.015625 7.894531 0.015625 7.78125 0.015625 C 7.78125 0.015625 7.660156 0.0078125 7.421875 0 C 7.316406 0 7.21875 0 7.125 0 L 6.09375 0 L 5.453125 -1.921875 L 2.4375 -1.921875 Z M 4.9375 -3.53125 L 3.921875 -6.65625 L 2.9375 -3.53125 Z M 4.9375 -3.53125 "/></g></g><g style="fill:#fff0aa;fill-opacity:1;"><g transform="translate(185.176572, 242.072768)"><path style="stroke:none" d="M 1.03125 -8.953125 C 1.644531 -9.035156 2.28125 -9.078125 2.9375 -9.078125 C 4.144531 -9.078125 5.066406 -8.789062 5.703125 -8.21875 C 6.335938 -7.65625 6.65625 -6.804688 6.65625 -5.671875 C 6.65625 -4.648438 6.304688 -3.847656 5.609375 -3.265625 C 4.960938 -2.710938 4.128906 -2.4375 3.109375 -2.4375 C 2.992188 -2.4375 2.867188 -2.441406 2.734375 -2.453125 L 2.734375 0 L 1.03125 0 Z M 3.140625 -7.46875 C 3.003906 -7.46875 2.867188 -7.460938 2.734375 -7.453125 L 2.734375 -3.921875 C 2.878906 -3.910156 3.050781 -3.90625 3.25 -3.90625 C 3.457031 -3.90625 3.671875 -3.945312 3.890625 -4.03125 C 4.117188 -4.113281 4.3125 -4.234375 4.46875 -4.390625 C 4.78125 -4.722656 4.9375 -5.15625 4.9375 -5.6875 C 4.9375 -6.875 4.335938 -7.46875 3.140625 -7.46875 Z M 3.140625 -7.46875 "/></g></g><g style="fill:#fff0aa;fill-opacity:1;"><g transform="translate(192.0513, 242.072768)"><path style="stroke:none" d="M 5.640625 -1.609375 C 5.910156 -1.609375 6.097656 -1.632812 6.203125 -1.6875 L 6.234375 -1.6875 L 6.171875 0 L 1.15625 0 L 1.15625 -8.953125 C 1.269531 -8.941406 1.398438 -8.9375 1.546875 -8.9375 L 2.015625 -8.921875 C 2.328125 -8.910156 2.671875 -8.90625 3.046875 -8.90625 C 4.066406 -8.90625 5.078125 -8.925781 6.078125 -8.96875 C 6.023438 -8.570312 6 -8.046875 6 -7.390625 C 6 -7.316406 6.003906 -7.265625 6.015625 -7.234375 L 6 -7.203125 C 5.769531 -7.273438 5.441406 -7.3125 5.015625 -7.3125 L 2.90625 -7.3125 L 2.90625 -5.59375 L 4.484375 -5.59375 C 4.972656 -5.59375 5.269531 -5.609375 5.375 -5.640625 L 5.390625 -3.984375 C 5.179688 -4.003906 4.90625 -4.015625 4.5625 -4.015625 L 2.90625 -4.015625 L 2.90625 -1.609375 Z M 5.640625 -1.609375 "/></g></g><g style="fill:#fff0aa;fill-opacity:1;"><g transform="translate(198.926029, 242.072768)"><path style="stroke:none" d="M 6.78125 -0.65625 C 6.457031 -0.394531 6.03125 -0.191406 5.5 -0.046875 C 4.976562 0.0976562 4.335938 0.171875 3.578125 0.171875 C 2.816406 0.171875 2.007812 0.0976562 1.15625 -0.046875 L 1.15625 -8.875 C 2.019531 -9.007812 2.769531 -9.078125 3.40625 -9.078125 C 4.039062 -9.078125 4.5625 -9.015625 4.96875 -8.890625 C 5.382812 -8.773438 5.71875 -8.613281 5.96875 -8.40625 C 6.476562 -8.007812 6.734375 -7.492188 6.734375 -6.859375 C 6.734375 -6.234375 6.503906 -5.710938 6.046875 -5.296875 C 6.585938 -5.117188 7.007812 -4.796875 7.3125 -4.328125 C 7.582031 -3.898438 7.71875 -3.425781 7.71875 -2.90625 C 7.71875 -2.394531 7.644531 -1.957031 7.5 -1.59375 C 7.351562 -1.226562 7.113281 -0.914062 6.78125 -0.65625 Z M 2.921875 -5.546875 C 3.109375 -5.515625 3.34375 -5.5 3.625 -5.5 C 3.90625 -5.5 4.132812 -5.535156 4.3125 -5.609375 C 4.5 -5.679688 4.644531 -5.769531 4.75 -5.875 C 4.90625 -6.0625 4.984375 -6.316406 4.984375 -6.640625 C 4.984375 -7.328125 4.582031 -7.671875 3.78125 -7.671875 C 3.4375 -7.671875 3.148438 -7.65625 2.921875 -7.625 Z M 3.921875 -4.109375 C 3.546875 -4.109375 3.210938 -4.082031 2.921875 -4.03125 L 2.921875 -1.40625 C 3.234375 -1.320312 3.5625 -1.28125 3.90625 -1.28125 C 4.25 -1.28125 4.550781 -1.320312 4.8125 -1.40625 C 5.082031 -1.488281 5.304688 -1.597656 5.484375 -1.734375 C 5.835938 -2.035156 6.015625 -2.410156 6.015625 -2.859375 C 6.015625 -3.691406 5.316406 -4.109375 3.921875 -4.109375 Z M 3.921875 -4.109375 "/></g></g><g style="fill:#fff0aa;fill-opacity:1;"><g transform="translate(206.946552, 242.072768)"><path style="stroke:none" d="M 1.796875 0.046875 C 1.410156 0.015625 0.960938 0 0.453125 0 L -0.078125 0 L 2.84375 -8.171875 C 2.96875 -8.535156 3.03125 -8.742188 3.03125 -8.796875 C 3.03125 -8.859375 3.03125 -8.898438 3.03125 -8.921875 C 3.320312 -8.910156 3.628906 -8.90625 3.953125 -8.90625 C 4.222656 -8.90625 4.546875 -8.910156 4.921875 -8.921875 L 4.9375 -8.90625 C 4.925781 -8.882812 4.921875 -8.859375 4.921875 -8.828125 C 4.921875 -8.742188 4.988281 -8.519531 5.125 -8.15625 L 8.09375 0.015625 C 8 0.015625 7.894531 0.015625 7.78125 0.015625 C 7.78125 0.015625 7.660156 0.0078125 7.421875 0 C 7.316406 0 7.21875 0 7.125 0 L 6.09375 0 L 5.453125 -1.921875 L 2.4375 -1.921875 Z M 4.9375 -3.53125 L 3.921875 -6.65625 L 2.9375 -3.53125 Z M 4.9375 -3.53125 "/></g></g><g style="fill:#fff0aa;fill-opacity:1;"><g transform="translate(214.967074, 242.072768)"><path style="stroke:none" d="M 6.53125 -8.40625 L 6.40625 -6.4375 L 6.359375 -6.4375 C 6.023438 -6.925781 5.460938 -7.242188 4.671875 -7.390625 C 4.421875 -7.441406 4.179688 -7.46875 3.953125 -7.46875 C 3.722656 -7.46875 3.523438 -7.445312 3.359375 -7.40625 C 3.191406 -7.363281 3.050781 -7.304688 2.9375 -7.234375 C 2.695312 -7.078125 2.578125 -6.867188 2.578125 -6.609375 C 2.578125 -6.265625 2.679688 -6.007812 2.890625 -5.84375 C 3.160156 -5.632812 3.601562 -5.488281 4.21875 -5.40625 C 4.84375 -5.320312 5.34375 -5.207031 5.71875 -5.0625 C 6.09375 -4.925781 6.398438 -4.75 6.640625 -4.53125 C 7.097656 -4.113281 7.328125 -3.53125 7.328125 -2.78125 C 7.328125 -1.800781 6.957031 -1.046875 6.21875 -0.515625 C 5.582031 -0.0546875 4.78125 0.171875 3.8125 0.171875 C 3.039062 0.171875 2.273438 0.0195312 1.515625 -0.28125 C 1.265625 -0.375 1.046875 -0.484375 0.859375 -0.609375 L 0.9375 -2.859375 L 0.953125 -2.875 C 1.503906 -1.914062 2.414062 -1.4375 3.6875 -1.4375 C 4.582031 -1.4375 5.175781 -1.65625 5.46875 -2.09375 C 5.5625 -2.238281 5.609375 -2.398438 5.609375 -2.578125 C 5.609375 -2.765625 5.578125 -2.914062 5.515625 -3.03125 C 5.460938 -3.144531 5.367188 -3.242188 5.234375 -3.328125 C 4.972656 -3.503906 4.535156 -3.617188 3.921875 -3.671875 C 3.316406 -3.734375 2.816406 -3.84375 2.421875 -4 C 2.035156 -4.164062 1.726562 -4.367188 1.5 -4.609375 C 1.082031 -5.035156 0.875 -5.628906 0.875 -6.390625 C 0.875 -7.191406 1.148438 -7.835938 1.703125 -8.328125 C 2.273438 -8.828125 3.039062 -9.078125 4 -9.078125 C 4.96875 -9.078125 5.8125 -8.851562 6.53125 -8.40625 Z M 6.53125 -8.40625 "/></g></g><g style="fill:#fff0aa;fill-opacity:1;"><g transform="translate(222.960795, 242.072768)"><path style="stroke:none" d=""/></g></g><g style="fill:#fff0aa;fill-opacity:1;"><g transform="translate(227.51045, 242.072768)"><path style="stroke:none" d="M 5.640625 -1.609375 C 5.910156 -1.609375 6.097656 -1.632812 6.203125 -1.6875 L 6.234375 -1.6875 L 6.171875 0 L 1.15625 0 L 1.15625 -8.953125 C 1.269531 -8.941406 1.398438 -8.9375 1.546875 -8.9375 L 2.015625 -8.921875 C 2.328125 -8.910156 2.671875 -8.90625 3.046875 -8.90625 C 4.066406 -8.90625 5.078125 -8.925781 6.078125 -8.96875 C 6.023438 -8.570312 6 -8.046875 6 -7.390625 C 6 -7.316406 6.003906 -7.265625 6.015625 -7.234375 L 6 -7.203125 C 5.769531 -7.273438 5.441406 -7.3125 5.015625 -7.3125 L 2.90625 -7.3125 L 2.90625 -5.59375 L 4.484375 -5.59375 C 4.972656 -5.59375 5.269531 -5.609375 5.375 -5.640625 L 5.390625 -3.984375 C 5.179688 -4.003906 4.90625 -4.015625 4.5625 -4.015625 L 2.90625 -4.015625 L 2.90625 -1.609375 Z M 5.640625 -1.609375 "/></g></g><g style="fill:#fff0aa;fill-opacity:1;"><g transform="translate(234.385179, 242.072768)"><path style="stroke:none" d=""/></g></g><g style="fill:#fff0aa;fill-opacity:1;"><g transform="translate(238.934835, 242.072768)"><path style="stroke:none" d="M 4.03125 -3.46875 C 3.894531 -3.457031 3.75 -3.453125 3.59375 -3.453125 C 3.445312 -3.453125 3.222656 -3.460938 2.921875 -3.484375 L 2.921875 0 L 1.15625 0 L 1.15625 -8.953125 C 1.78125 -9.035156 2.546875 -9.078125 3.453125 -9.078125 C 4.691406 -9.078125 5.613281 -8.847656 6.21875 -8.390625 C 6.832031 -7.929688 7.140625 -7.222656 7.140625 -6.265625 C 7.140625 -5.523438 6.863281 -4.894531 6.3125 -4.375 C 6.125 -4.195312 5.914062 -4.046875 5.6875 -3.921875 L 7.046875 -1.046875 C 7.316406 -0.453125 7.519531 -0.0976562 7.65625 0.015625 L 7.625 0.046875 C 7.195312 -0.0234375 6.519531 -0.0234375 5.59375 0.046875 Z M 3.578125 -7.5 C 3.347656 -7.5 3.128906 -7.488281 2.921875 -7.46875 L 2.921875 -4.90625 C 3.140625 -4.875 3.394531 -4.859375 3.6875 -4.859375 C 3.988281 -4.859375 4.238281 -4.882812 4.4375 -4.9375 C 4.644531 -4.988281 4.820312 -5.066406 4.96875 -5.171875 C 5.28125 -5.410156 5.4375 -5.765625 5.4375 -6.234375 C 5.4375 -6.710938 5.269531 -7.046875 4.9375 -7.234375 C 4.632812 -7.410156 4.179688 -7.5 3.578125 -7.5 Z M 3.578125 -7.5 "/></g></g><g style="fill:#fff0aa;fill-opacity:1;"><g transform="translate(246.928555, 242.072768)"><path style="stroke:none" d="M 5.640625 -1.609375 C 5.910156 -1.609375 6.097656 -1.632812 6.203125 -1.6875 L 6.234375 -1.6875 L 6.171875 0 L 1.15625 0 L 1.15625 -8.953125 C 1.269531 -8.941406 1.398438 -8.9375 1.546875 -8.9375 L 2.015625 -8.921875 C 2.328125 -8.910156 2.671875 -8.90625 3.046875 -8.90625 C 4.066406 -8.90625 5.078125 -8.925781 6.078125 -8.96875 C 6.023438 -8.570312 6 -8.046875 6 -7.390625 C 6 -7.316406 6.003906 -7.265625 6.015625 -7.234375 L 6 -7.203125 C 5.769531 -7.273438 5.441406 -7.3125 5.015625 -7.3125 L 2.90625 -7.3125 L 2.90625 -5.59375 L 4.484375 -5.59375 C 4.972656 -5.59375 5.269531 -5.609375 5.375 -5.640625 L 5.390625 -3.984375 C 5.179688 -4.003906 4.90625 -4.015625 4.5625 -4.015625 L 2.90625 -4.015625 L 2.90625 -1.609375 Z M 5.640625 -1.609375 "/></g></g><g style="fill:#fff0aa;fill-opacity:1;"><g transform="translate(253.803284, 242.072768)"><path style="stroke:none" d="M 8.5 -5.375 C 8.40625 -5.21875 8.359375 -4.851562 8.359375 -4.28125 L 8.359375 -2.203125 C 8.359375 -1.578125 8.035156 -1.03125 7.390625 -0.5625 C 6.710938 -0.0703125 5.882812 0.171875 4.90625 0.171875 C 3.550781 0.171875 2.46875 -0.253906 1.65625 -1.109375 C 0.875 -1.921875 0.484375 -2.957031 0.484375 -4.21875 C 0.484375 -5.5625 0.882812 -6.675781 1.6875 -7.5625 C 2.570312 -8.570312 3.796875 -9.078125 5.359375 -9.078125 C 6.390625 -9.078125 7.210938 -8.875 7.828125 -8.46875 L 7.71875 -6.5 L 7.65625 -6.484375 C 7.5 -6.753906 7.191406 -6.976562 6.734375 -7.15625 C 6.296875 -7.320312 5.835938 -7.40625 5.359375 -7.40625 C 4.878906 -7.40625 4.457031 -7.328125 4.09375 -7.171875 C 3.738281 -7.023438 3.4375 -6.8125 3.1875 -6.53125 C 2.65625 -5.945312 2.390625 -5.179688 2.390625 -4.234375 C 2.390625 -3.410156 2.625 -2.75 3.09375 -2.25 C 3.5625 -1.75 4.160156 -1.5 4.890625 -1.5 C 5.703125 -1.5 6.25 -1.710938 6.53125 -2.140625 C 6.613281 -2.273438 6.65625 -2.425781 6.65625 -2.59375 L 6.65625 -3.703125 L 5.796875 -3.703125 C 5.328125 -3.703125 5.070312 -3.660156 5.03125 -3.578125 L 5.015625 -3.59375 L 4.953125 -5.34375 C 5.078125 -5.300781 5.585938 -5.28125 6.484375 -5.28125 L 7.265625 -5.28125 C 7.753906 -5.28125 8.15625 -5.316406 8.46875 -5.390625 Z M 8.5 -5.375 "/></g></g><g style="fill:#fff0aa;fill-opacity:1;"><g transform="translate(262.942787, 242.072768)"><path style="stroke:none" d="M 1.359375 -8.9375 C 1.804688 -8.914062 2.078125 -8.90625 2.171875 -8.90625 L 2.65625 -8.90625 C 2.882812 -8.90625 3.070312 -8.925781 3.21875 -8.96875 L 3.21875 0 L 1.359375 0 Z M 1.359375 -8.9375 "/></g></g><g style="fill:#fff0aa;fill-opacity:1;"><g transform="translate(267.525939, 242.072768)"><path style="stroke:none" d="M 1.796875 0.046875 C 1.410156 0.015625 0.960938 0 0.453125 0 L -0.078125 0 L 2.84375 -8.171875 C 2.96875 -8.535156 3.03125 -8.742188 3.03125 -8.796875 C 3.03125 -8.859375 3.03125 -8.898438 3.03125 -8.921875 C 3.320312 -8.910156 3.628906 -8.90625 3.953125 -8.90625 C 4.222656 -8.90625 4.546875 -8.910156 4.921875 -8.921875 L 4.9375 -8.90625 C 4.925781 -8.882812 4.921875 -8.859375 4.921875 -8.828125 C 4.921875 -8.742188 4.988281 -8.519531 5.125 -8.15625 L 8.09375 0.015625 C 8 0.015625 7.894531 0.015625 7.78125 0.015625 C 7.78125 0.015625 7.660156 0.0078125 7.421875 0 C 7.316406 0 7.21875 0 7.125 0 L 6.09375 0 L 5.453125 -1.921875 L 2.4375 -1.921875 Z M 4.9375 -3.53125 L 3.921875 -6.65625 L 2.9375 -3.53125 Z M 2.90625 -10.484375 C 2.488281 -10.484375 2.117188 -10.316406 1.796875 -9.984375 L 1.765625 -9.984375 L 1.734375 -11.328125 C 2.046875 -11.679688 2.460938 -11.859375 2.984375 -11.859375 C 3.390625 -11.859375 3.769531 -11.734375 4.125 -11.484375 C 4.476562 -11.242188 4.84375 -11.125 5.21875 -11.125 C 5.75 -11.125 6.097656 -11.3125 6.265625 -11.6875 L 6.28125 -11.671875 L 6.203125 -10.234375 C 6.128906 -10.097656 5.992188 -9.984375 5.796875 -9.890625 C 5.597656 -9.804688 5.390625 -9.765625 5.171875 -9.765625 C 4.960938 -9.765625 4.789062 -9.78125 4.65625 -9.8125 C 4.53125 -9.851562 4.410156 -9.898438 4.296875 -9.953125 C 4.191406 -10.003906 4.085938 -10.0625 3.984375 -10.125 C 3.890625 -10.1875 3.789062 -10.242188 3.6875 -10.296875 C 3.4375 -10.421875 3.175781 -10.484375 2.90625 -10.484375 Z M 2.90625 -10.484375 "/></g></g><g style="fill:#fff0aa;fill-opacity:1;"><g transform="translate(275.546462, 242.072768)"><path style="stroke:none" d="M 1.875 -1.046875 C 1.46875 -1.441406 1.144531 -1.910156 0.90625 -2.453125 C 0.675781 -3.003906 0.5625 -3.601562 0.5625 -4.25 C 0.5625 -4.894531 0.671875 -5.507812 0.890625 -6.09375 C 1.109375 -6.675781 1.421875 -7.1875 1.828125 -7.625 C 2.234375 -8.070312 2.722656 -8.425781 3.296875 -8.6875 C 3.878906 -8.945312 4.53125 -9.078125 5.25 -9.078125 C 6.476562 -9.078125 7.515625 -8.6875 8.359375 -7.90625 C 9.265625 -7.082031 9.71875 -5.960938 9.71875 -4.546875 C 9.71875 -3.179688 9.25 -2.046875 8.3125 -1.140625 C 7.75 -0.578125 7.070312 -0.191406 6.28125 0.015625 C 5.882812 0.117188 5.425781 0.171875 4.90625 0.171875 C 4.394531 0.171875 3.863281 0.0664062 3.3125 -0.140625 C 2.757812 -0.359375 2.28125 -0.660156 1.875 -1.046875 Z M 2.4375 -4.34375 C 2.4375 -3.925781 2.503906 -3.539062 2.640625 -3.1875 C 2.773438 -2.84375 2.96875 -2.546875 3.21875 -2.296875 C 3.738281 -1.765625 4.410156 -1.5 5.234375 -1.5 C 6.015625 -1.5 6.640625 -1.753906 7.109375 -2.265625 C 7.597656 -2.785156 7.84375 -3.5 7.84375 -4.40625 C 7.84375 -5.25 7.609375 -5.957031 7.140625 -6.53125 C 6.648438 -7.132812 5.972656 -7.4375 5.109375 -7.4375 C 4.273438 -7.4375 3.613281 -7.128906 3.125 -6.515625 C 2.664062 -5.929688 2.4375 -5.207031 2.4375 -4.34375 Z M 2.4375 -4.34375 "/></g></g></g></svg>